<?xml version="1.0" encoding="UTF-8"?>
<svg xmlns="http://www.w3.org/2000/svg" version="1.1" viewBox="0 0 470.19 580.23">
  <!-- Generator: Adobe Illustrator 29.5.1, SVG Export Plug-In . SVG Version: 2.1.0 Build 141)  -->
  <defs>
    <style>
      .st0 {
        fill: #fff;
      }

      .st1, .st2 {
        fill: #4b5a28;
      }

      .st3 {
        isolation: isolate;
      }

      .st4 {
        fill: #b8d533;
      }

      .st4, .st2 {
        fill-rule: evenodd;
      }
    </style>
  </defs>
  <g id="Shape_3" class="st3">
    <g id="Shape_31" data-name="Shape_3">
      <path class="st2" d="M229.65,2.8C102.82,2.8,0,105.62,0,232.45s198.71,347.78,229.65,347.78,229.65-220.95,229.65-347.78S356.48,2.8,229.65,2.8Z"/>
    </g>
  </g>
  <g id="Shape_2" class="st3">
    <g id="Shape_21" data-name="Shape_2">
      <path class="st4" d="M232.95,15.46C116.3,15.46,21.74,110.02,21.74,226.67s174.59,321.81,207.91,321.81,214.52-205.16,214.52-321.81S349.6,15.46,232.95,15.46Z"/>
    </g>
  </g>
  <g id="Layer_4">
    <circle class="st0" cx="233.69" cy="198.29" r="79.76"/>
  </g>
  <g id="Layer_1_copy_3_xA0_Image">
    <path class="st1" d="M469.94.06c.97,8-1.08,14.9-2.33,22.53s-2.67,22.49-7.01,28.94c-2.62,3.9-6.55,6.66-9.11,10.66-5.13,8.01-8.32,18.25-12.99,26.56-10.42,18.54-37.69,32.44-55.96,42.3-2.97,3.45-8.28,4.45-9,9.57-.3,2.15.15,4.37-.07,6.52-.85,8.27-6.11,16.86-10.27,23.88-12.52,14.14-28.34,24.6-43.68,35.41-1.91,3.18.79,5.07.64,7.19-.18,2.57-4.43,11.4-6.09,13.73-8.22,11.56-23.72,15.4-35.79,21.13-52.05,24.7-95.18,50.25-125.27,101.2-11.45,19.39-24.49,43.48-33.77,63.9-2.11,4.64-3.55,9.98-5.72,14.65l-4.84.85c.29-8.28-2.92-15.75-1.76-24.24.67-4.9,7.3-16.89,9.93-21.82,20.97-39.41,47.37-79.08,74.25-114.48,47.11-62.04,100.35-115.6,156.92-169.61,34.9-33.32,72.74-62.65,111.66-91.45,2.65-1.96,5.53-5.21,8.12-6.86.74-.47,1.17-.76,2.12-.57Z"/>
  </g>
</svg>